<?xml version="1.0" encoding="UTF-8"?>
<svg width="32" height="32" viewBox="0 0 32 32" xmlns="http://www.w3.org/2000/svg">
    <!-- Background circle -->
    <circle cx="16" cy="16" r="16" fill="#007bff"/>
    
    <!-- "O" letter - stylized -->
    <path d="M8 12C8 9.8 9.8 8 12 8h2c2.2 0 4 1.8 4 4v8c0 2.2-1.8 4-4 4h-2c-2.2 0-4-1.8-4-4v-8zm4 2v8h2v-8h-2z" fill="white"/>
    
    <!-- "h" letter - more clearly h-shaped -->
    <path d="M18 8v16h2v-6h2c1.1 0 2-.9 2-2v-4c0-1.1-.9-2-2-2h-4zm2 4v4h-2v-4h2z" fill="white"/>
</svg> 