<?xml version="1.0" encoding="UTF-8"?>
<svg width="32" height="32" viewBox="0 0 32 32" xmlns="http://www.w3.org/2000/svg">
    <!-- Background circle -->
    <circle cx="16" cy="16" r="16" fill="#007bff"/>
    
    <!-- "O" letter -->
    <path d="M10 8C7.8 8 6 9.8 6 12v8c0 2.2 1.8 4 4 4h2c2.2 0 4-1.8 4-4v-8c0-2.2-1.8-4-4-4h-2zM10 12h2v8h-2v-8z" fill="white"/>
    
    <!-- "U" letter - modified to be more U-shaped -->
    <path d="M18 8v12c0 2.2 1.8 4 4 4h2c2.2 0 4-1.8 4-4V8h-4v12h-2V8h-4z" fill="white"/>
</svg> 